<svg width="177" height="24" viewBox="0 0 177 24" fill="none" xmlns="http://www.w3.org/2000/svg">
<path d="M19.4915 19.7274C24.9153 22.8588 31.8507 21.0005 34.9821 15.5767L39.4371 7.86051C40.3318 6.31081 39.8008 4.32931 38.2512 3.43461C36.7015 2.53991 34.72 3.07091 33.8253 4.62051L29.3703 12.3367C28.0283 14.6612 25.056 15.4576 22.7315 14.1156L20.6271 12.9006C19.0774 12.0059 17.0959 12.5369 16.2012 14.0865L14.7046 16.6786L12.9272 19.6062L14.7734 19.1091C16.3658 18.6804 18.0633 18.9028 19.4915 19.7274Z" fill="white"/>
<path d="M24.3801 4.77993C18.9563 1.64853 12.021 3.50683 8.88958 8.93063L4.43462 16.6468C3.53992 18.1965 4.07088 20.178 5.62053 21.0727C7.17018 21.9674 9.15172 21.4365 10.0464 19.8868L14.5013 12.1706C15.8434 9.84613 18.8157 9.04973 21.1402 10.3917L23.2446 11.6067C24.7942 12.5014 26.7758 11.9705 27.6705 10.4208L28.4373 9.09263L31.1517 4.62193L28.5398 5.32503C27.1359 5.70303 25.6393 5.50693 24.3801 4.77993Z" fill="white"/>
<path d="M59.6199 4.892V7.378H53.2179V11.316H58.1239V13.758H53.2179V20.248H50.1379V4.892H59.6199ZM63.3659 6.608C62.8232 6.608 62.3686 6.4393 62.0019 6.102C61.6499 5.75 61.4739 5.3173 61.4739 4.804C61.4739 4.2907 61.6499 3.8653 62.0019 3.528C62.3686 3.176 62.8232 3 63.3659 3C63.9086 3 64.3559 3.176 64.7079 3.528C65.0746 3.8653 65.2579 4.2907 65.2579 4.804C65.2579 5.3173 65.0746 5.75 64.7079 6.102C64.3559 6.4393 63.9086 6.608 63.3659 6.608ZM64.8839 8.06V20.248H61.8039V8.06H64.8839ZM74.6809 7.884C76.1329 7.884 77.3063 8.346 78.2009 9.27C79.0956 10.1793 79.5429 11.4553 79.5429 13.098V20.248H76.4629V13.516C76.4629 12.548 76.2209 11.8073 75.7369 11.294C75.2529 10.766 74.5929 10.502 73.7569 10.502C72.9063 10.502 72.2316 10.766 71.7329 11.294C71.2489 11.8073 71.0069 12.548 71.0069 13.516V20.248H67.9269V8.06H71.0069V9.578C71.4176 9.05 71.9383 8.6393 72.5689 8.346C73.2143 8.038 73.9183 7.884 74.6809 7.884ZM93.8019 13.89C93.8019 14.33 93.7725 14.726 93.7139 15.078H84.8039C84.8772 15.958 85.1852 16.6473 85.7279 17.146C86.2705 17.6447 86.9379 17.894 87.7299 17.894C88.8739 17.894 89.6879 17.4027 90.1719 16.42H93.4939C93.1419 17.5933 92.4672 18.5613 91.4699 19.324C90.4725 20.072 89.2479 20.446 87.7959 20.446C86.6225 20.446 85.5665 20.1893 84.6279 19.676C83.7039 19.148 82.9779 18.4073 82.4499 17.454C81.9365 16.5007 81.6799 15.4007 81.6799 14.154C81.6799 12.8927 81.9365 11.7853 82.4499 10.832C82.9632 9.8787 83.6819 9.1453 84.6059 8.632C85.5299 8.1187 86.5932 7.862 87.7959 7.862C88.9545 7.862 89.9885 8.1113 90.8979 8.61C91.8219 9.1087 92.5332 9.82 93.0319 10.744C93.5452 11.6533 93.8019 12.702 93.8019 13.89ZM90.6119 13.01C90.5972 12.218 90.3112 11.5873 89.7539 11.118C89.1965 10.634 88.5145 10.392 87.7079 10.392C86.9452 10.392 86.2999 10.6267 85.7719 11.096C85.2585 11.5507 84.9432 12.1887 84.8259 13.01H90.6119ZM109.844 4.892L104.212 20.248H100.472L94.84 4.892H98.14L102.364 17.102L106.566 4.892H109.844ZM117.103 20.446C115.929 20.446 114.873 20.1893 113.935 19.676C112.996 19.148 112.255 18.4073 111.713 17.454C111.185 16.5007 110.921 15.4007 110.921 14.154C110.921 12.9073 111.192 11.8073 111.735 10.854C112.292 9.9007 113.047 9.1673 114.001 8.654C114.954 8.126 116.017 7.862 117.191 7.862C118.364 7.862 119.427 8.126 120.381 8.654C121.334 9.1673 122.082 9.9007 122.625 10.854C123.182 11.8073 123.461 12.9073 123.461 14.154C123.461 15.4007 123.175 16.5007 122.603 17.454C122.045 18.4073 121.283 19.148 120.315 19.676C119.361 20.1893 118.291 20.446 117.103 20.446ZM117.103 17.762C117.66 17.762 118.181 17.63 118.665 17.366C119.163 17.0873 119.559 16.6767 119.853 16.134C120.146 15.5913 120.293 14.9313 120.293 14.154C120.293 12.9953 119.985 12.108 119.369 11.492C118.767 10.8613 118.027 10.546 117.147 10.546C116.267 10.546 115.526 10.8613 114.925 11.492C114.338 12.108 114.045 12.9953 114.045 14.154C114.045 15.3127 114.331 16.2073 114.903 16.838C115.489 17.454 116.223 17.762 117.103 17.762ZM127.282 6.608C126.739 6.608 126.285 6.4393 125.918 6.102C125.566 5.75 125.39 5.3173 125.39 4.804C125.39 4.2907 125.566 3.8653 125.918 3.528C126.285 3.176 126.739 3 127.282 3C127.825 3 128.272 3.176 128.624 3.528C128.991 3.8653 129.174 4.2907 129.174 4.804C129.174 5.3173 128.991 5.75 128.624 6.102C128.272 6.4393 127.825 6.608 127.282 6.608ZM128.8 8.06V20.248H125.72V8.06H128.8ZM131.051 14.154C131.051 12.8927 131.308 11.7927 131.821 10.854C132.334 9.9007 133.046 9.1673 133.955 8.654C134.864 8.126 135.906 7.862 137.079 7.862C138.59 7.862 139.836 8.2433 140.819 9.006C141.816 9.754 142.484 10.81 142.821 12.174H139.499C139.323 11.646 139.022 11.2353 138.597 10.942C138.186 10.634 137.673 10.48 137.057 10.48C136.177 10.48 135.48 10.8027 134.967 11.448C134.454 12.0787 134.197 12.9807 134.197 14.154C134.197 15.3127 134.454 16.2147 134.967 16.86C135.48 17.4907 136.177 17.806 137.057 17.806C138.304 17.806 139.118 17.2487 139.499 16.134H142.821C142.484 17.454 141.816 18.5027 140.819 19.28C139.822 20.0573 138.575 20.446 137.079 20.446C135.906 20.446 134.864 20.1893 133.955 19.676C133.046 19.148 132.334 18.4147 131.821 17.476C131.308 16.5227 131.051 15.4153 131.051 14.154ZM156.407 13.89C156.407 14.33 156.378 14.726 156.319 15.078H147.409C147.483 15.958 147.791 16.6473 148.333 17.146C148.876 17.6447 149.543 17.894 150.335 17.894C151.479 17.894 152.293 17.4027 152.777 16.42H156.099C155.747 17.5933 155.073 18.5613 154.075 19.324C153.078 20.072 151.853 20.446 150.401 20.446C149.228 20.446 148.172 20.1893 147.233 19.676C146.309 19.148 145.583 18.4073 145.055 17.454C144.542 16.5007 144.285 15.4007 144.285 14.154C144.285 12.8927 144.542 11.7853 145.055 10.832C145.569 9.8787 146.287 9.1453 147.211 8.632C148.135 8.1187 149.199 7.862 150.401 7.862C151.56 7.862 152.594 8.1113 153.503 8.61C154.427 9.1087 155.139 9.82 155.637 10.744C156.151 11.6533 156.407 12.702 156.407 13.89ZM153.217 13.01C153.203 12.218 152.917 11.5873 152.359 11.118C151.802 10.634 151.12 10.392 150.313 10.392C149.551 10.392 148.905 10.6267 148.377 11.096C147.864 11.5507 147.549 12.1887 147.431 13.01H153.217Z" fill="white"/>
</svg>
