<svg width="158" height="54" viewBox="0 0 158 54" fill="none" xmlns="http://www.w3.org/2000/svg">
<path d="M17.1114 34.1649C22.5352 37.2963 29.4706 35.438 32.602 30.0142L37.057 22.298C37.9517 20.7483 37.4207 18.7668 35.8711 17.8721C34.3214 16.9774 32.3399 17.5084 31.4452 19.058L26.9902 26.7742C25.6482 29.0987 22.6759 29.8951 20.3514 28.5531L18.247 27.3381C16.6973 26.4434 14.7158 26.9744 13.8211 28.524L12.3245 31.1161L10.5471 34.0437L12.3933 33.5466C13.9857 33.1179 15.6832 33.3403 17.1114 34.1649Z" fill="white"/>
<path d="M22 19.2174C16.5762 16.086 9.64087 17.9443 6.50945 23.3681L2.05449 31.0843C1.15979 32.634 1.69075 34.6155 3.2404 35.5102C4.79005 36.4049 6.77159 35.874 7.66628 34.3243L12.1212 26.6081C13.4633 24.2836 16.4356 23.4872 18.7601 24.8292L20.8645 26.0442C22.4141 26.9389 24.3957 26.408 25.2904 24.8583L26.0572 23.5301L28.7716 19.0594L26.1597 19.7625C24.7558 20.1405 23.2592 19.9444 22 19.2174Z" fill="white"/>
<path d="M54.6199 18.644V21.13H48.2179V25.068H53.1239V27.51H48.2179V34H45.1379V18.644H54.6199ZM58.3659 20.36C57.8232 20.36 57.3686 20.1913 57.0019 19.854C56.6499 19.502 56.4739 19.0693 56.4739 18.556C56.4739 18.0427 56.6499 17.6173 57.0019 17.28C57.3686 16.928 57.8232 16.752 58.3659 16.752C58.9086 16.752 59.3559 16.928 59.7079 17.28C60.0746 17.6173 60.2579 18.0427 60.2579 18.556C60.2579 19.0693 60.0746 19.502 59.7079 19.854C59.3559 20.1913 58.9086 20.36 58.3659 20.36ZM59.8839 21.812V34H56.8039V21.812H59.8839ZM69.6809 21.636C71.1329 21.636 72.3063 22.098 73.2009 23.022C74.0956 23.9313 74.5429 25.2073 74.5429 26.85V34H71.4629V27.268C71.4629 26.3 71.2209 25.5593 70.7369 25.046C70.2529 24.518 69.5929 24.254 68.7569 24.254C67.9063 24.254 67.2316 24.518 66.7329 25.046C66.2489 25.5593 66.0069 26.3 66.0069 27.268V34H62.9269V21.812H66.0069V23.33C66.4176 22.802 66.9383 22.3913 67.5689 22.098C68.2143 21.79 68.9183 21.636 69.6809 21.636ZM88.8019 27.642C88.8019 28.082 88.7725 28.478 88.7139 28.83H79.8039C79.8772 29.71 80.1852 30.3993 80.7279 30.898C81.2705 31.3967 81.9379 31.646 82.7299 31.646C83.8739 31.646 84.6879 31.1547 85.1719 30.172H88.4939C88.1419 31.3453 87.4672 32.3133 86.4699 33.076C85.4725 33.824 84.2479 34.198 82.7959 34.198C81.6225 34.198 80.5665 33.9413 79.6279 33.428C78.7039 32.9 77.9779 32.1593 77.4499 31.206C76.9365 30.2527 76.6799 29.1527 76.6799 27.906C76.6799 26.6447 76.9365 25.5373 77.4499 24.584C77.9632 23.6307 78.6819 22.8973 79.6059 22.384C80.5299 21.8707 81.5932 21.614 82.7959 21.614C83.9545 21.614 84.9885 21.8633 85.8979 22.362C86.8219 22.8607 87.5332 23.572 88.0319 24.496C88.5452 25.4053 88.8019 26.454 88.8019 27.642ZM85.6119 26.762C85.5972 25.97 85.3112 25.3393 84.7539 24.87C84.1965 24.386 83.5145 24.144 82.7079 24.144C81.9452 24.144 81.2999 24.3787 80.7719 24.848C80.2585 25.3027 79.9432 25.9407 79.8259 26.762H85.6119ZM104.844 18.644L99.212 34H95.472L89.84 18.644H93.14L97.364 30.854L101.566 18.644H104.844ZM112.103 34.198C110.929 34.198 109.873 33.9413 108.935 33.428C107.996 32.9 107.255 32.1593 106.713 31.206C106.185 30.2527 105.921 29.1527 105.921 27.906C105.921 26.6593 106.192 25.5593 106.735 24.606C107.292 23.6527 108.047 22.9193 109.001 22.406C109.954 21.878 111.017 21.614 112.191 21.614C113.364 21.614 114.427 21.878 115.381 22.406C116.334 22.9193 117.082 23.6527 117.625 24.606C118.182 25.5593 118.461 26.6593 118.461 27.906C118.461 29.1527 118.175 30.2527 117.603 31.206C117.045 32.1593 116.283 32.9 115.315 33.428C114.361 33.9413 113.291 34.198 112.103 34.198ZM112.103 31.514C112.66 31.514 113.181 31.382 113.665 31.118C114.163 30.8393 114.559 30.4287 114.853 29.886C115.146 29.3433 115.293 28.6833 115.293 27.906C115.293 26.7473 114.985 25.86 114.369 25.244C113.767 24.6133 113.027 24.298 112.147 24.298C111.267 24.298 110.526 24.6133 109.925 25.244C109.338 25.86 109.045 26.7473 109.045 27.906C109.045 29.0647 109.331 29.9593 109.903 30.59C110.489 31.206 111.223 31.514 112.103 31.514ZM122.282 20.36C121.739 20.36 121.285 20.1913 120.918 19.854C120.566 19.502 120.39 19.0693 120.39 18.556C120.39 18.0427 120.566 17.6173 120.918 17.28C121.285 16.928 121.739 16.752 122.282 16.752C122.825 16.752 123.272 16.928 123.624 17.28C123.991 17.6173 124.174 18.0427 124.174 18.556C124.174 19.0693 123.991 19.502 123.624 19.854C123.272 20.1913 122.825 20.36 122.282 20.36ZM123.8 21.812V34H120.72V21.812H123.8ZM126.051 27.906C126.051 26.6447 126.308 25.5447 126.821 24.606C127.334 23.6527 128.046 22.9193 128.955 22.406C129.864 21.878 130.906 21.614 132.079 21.614C133.59 21.614 134.836 21.9953 135.819 22.758C136.816 23.506 137.484 24.562 137.821 25.926H134.499C134.323 25.398 134.022 24.9873 133.597 24.694C133.186 24.386 132.673 24.232 132.057 24.232C131.177 24.232 130.48 24.5547 129.967 25.2C129.454 25.8307 129.197 26.7327 129.197 27.906C129.197 29.0647 129.454 29.9667 129.967 30.612C130.48 31.2427 131.177 31.558 132.057 31.558C133.304 31.558 134.118 31.0007 134.499 29.886H137.821C137.484 31.206 136.816 32.2547 135.819 33.032C134.822 33.8093 133.575 34.198 132.079 34.198C130.906 34.198 129.864 33.9413 128.955 33.428C128.046 32.9 127.334 32.1667 126.821 31.228C126.308 30.2747 126.051 29.1673 126.051 27.906ZM151.407 27.642C151.407 28.082 151.378 28.478 151.319 28.83H142.409C142.483 29.71 142.791 30.3993 143.333 30.898C143.876 31.3967 144.543 31.646 145.335 31.646C146.479 31.646 147.293 31.1547 147.777 30.172H151.099C150.747 31.3453 150.073 32.3133 149.075 33.076C148.078 33.824 146.853 34.198 145.401 34.198C144.228 34.198 143.172 33.9413 142.233 33.428C141.309 32.9 140.583 32.1593 140.055 31.206C139.542 30.2527 139.285 29.1527 139.285 27.906C139.285 26.6447 139.542 25.5373 140.055 24.584C140.569 23.6307 141.287 22.8973 142.211 22.384C143.135 21.8707 144.199 21.614 145.401 21.614C146.56 21.614 147.594 21.8633 148.503 22.362C149.427 22.8607 150.139 23.572 150.637 24.496C151.151 25.4053 151.407 26.454 151.407 27.642ZM148.217 26.762C148.203 25.97 147.917 25.3393 147.359 24.87C146.802 24.386 146.12 24.144 145.313 24.144C144.551 24.144 143.905 24.3787 143.377 24.848C142.864 25.3027 142.549 25.9407 142.431 26.762H148.217Z" fill="white"/>
</svg>
